<svg xmlns="http://www.w3.org/2000/svg" viewBox="0 0 1024 1024" width="50" height="50" style="fill: rgba(255, 255, 255, 1);"><path d="M229.368 303.456c0-15.858 11.898-27.751 27.753-27.751h352.893c15.864 0 27.757 11.893 27.757 27.751s-11.893 27.753-27.757 27.753H257.121c-15.854 0-27.753-15.853-27.753-27.753z"/><path d="M441.324 876.286l-254.081-2.118c-3.961 0-11.893-3.961-11.893-11.893V147.42c0-3.967 3.965-11.892 11.893-11.892h577.66c3.971 0 11.898 3.967 11.898 11.892v231.057a307.89 307.89 0 0 1 59.476 29.503V147.415c0-35.678-27.753-67.4-67.403-67.4l-581.64-.017c-35.679 0-67.395 31.74-67.395 71.39V866.24c0 35.686 27.753 67.404 67.403 67.404l320.375-2.182a310.522 310.522 0 0 1-66.293-55.176z"/><path d="M440.677 458.414H257.121c-15.854 0-27.753 11.891-27.753 27.752 0 15.857 11.898 27.75 27.753 27.75h142.487a310.07 310.07 0 0 1 41.069-55.502zM358.146 668.617c0-4.873.127-9.717.35-14.535H257.121c-15.854 0-27.753 11.895-27.753 27.758 0 15.859 11.898 27.76 27.753 27.76h103.735a312.007 312.007 0 0 1-2.71-40.983z"/><path d="M664.064 385.542c-157.221 0-285.134 126.782-285.134 282.642 0 155.841 127.913 282.571 285.134 282.571 157.232 0 285.141-126.786 285.141-282.571 0-155.861-127.908-282.642-285.141-282.642zm.071 510.46c-127.789 0-231.772-102.216-231.772-227.836 0-125.623 103.983-227.834 231.772-227.834 127.768.071 231.684 102.229 231.684 227.834-.001 125.62-103.987 227.836-231.684 227.836z"/><path d="M756.559 703.788h-98.871c-27.615 0-29.678-1.455-29.678-28.047V571.929c0-26.661 2.063-48.304 29.678-48.304 27.617 0 29.604 21.643 29.604 48.304v75.767h69.268c27.612 0 50.16 1.442 50.16 28.046-.001 26.591-22.549 28.046-50.161 28.046z"/></svg>