<svg xmlns="http://www.w3.org/2000/svg" viewBox="0 0 32 32" width="27" height="27" style="fill: rgba(250, 79, 81, 1);"><path d="M16 30.667c-8.1 0-14.667-6.566-14.667-14.667s6.566-14.667 14.667-14.667 14.667 6.566 14.667 14.667-6.566 14.667-14.667 14.667zM15.794 24.134c0.588 0 1.065-0.477 1.065-1.065s-0.477-1.065-1.065-1.065v0c-0.588 0-1.065 0.477-1.065 1.065s0.477 1.065 1.065 1.065v0zM11.003 12.422h1.774s0.533-2.839 3.195-2.839c3.017 0 3.017 2.661 3.017 2.839 0 0.532 0 1.419-1.952 2.838-1.419 1.243-2.129 2.839-1.952 4.614h1.745c-0.177-1.419 0.739-2.662 1.271-3.195 2.307-1.774 2.662-3.017 2.662-4.258 0.177-1.775-1.243-4.614-4.791-4.614-3.904 0-4.969 4.082-4.969 4.614z"></path></svg>